<svg width="40" height="40" viewBox="0 0 40 40" fill="none" xmlns="http://www.w3.org/2000/svg">
<path d="M33.5922 8.65939C34.033 8.029 34.7818 7.72083 35.877 7.72083H36.8105C36.9148 7.72083 37 7.63564 37 7.53132V6.80137C37 6.69705 36.9148 6.61186 36.8105 6.61186L29.1885 6.61158C29.1125 6.61158 29.0462 6.65432 29.0178 6.72067L24.4341 16.6698L19.969 6.11387C19.9406 6.04274 19.8695 6 19.7936 6H19.1064C19.0305 6 18.9641 6.04274 18.9309 6.11387L14.4991 16.3668L9.98653 6.72067C9.95336 6.65431 9.887 6.61158 9.81586 6.61158H2.18951C2.0852 6.61158 2 6.69677 2 6.80109V7.53104C2 7.63536 2.0852 7.72055 2.18951 7.72055C3.2608 7.72055 4.03826 7.83893 4.49793 8.07596C4.94837 8.30821 5.26107 8.60204 5.43174 8.95297C5.68283 9.44587 5.80626 10.2801 5.80626 11.4226V28.8325C5.80626 30.6385 5.58835 31.3353 5.40333 31.5959C4.96245 32.2263 4.22299 32.5345 3.14242 32.5345L2.18954 32.5348C2.08522 32.5348 2.00003 32.62 2.00003 32.7243V33.4542C2.00003 33.5585 2.08522 33.6437 2.18954 33.6437H13.6841C13.7884 33.6437 13.8736 33.5585 13.8736 33.4542V32.7243C13.8736 32.6247 13.7977 32.544 13.6982 32.5348C12.4422 32.4448 11.622 32.2598 11.2666 31.9755C10.9253 31.7053 10.7594 31.4019 10.7594 31.0513C10.7594 30.5677 10.9821 29.8141 11.4182 28.8092L13.5323 23.9461L17.9785 33.5303C18.0117 33.5966 18.0781 33.6394 18.1492 33.6394H18.808C18.8791 33.6394 18.9503 33.5966 18.9787 33.5303L23.2303 24.3628L24.9463 28.4297C25.4631 29.6433 25.7238 30.5391 25.7238 31.0984C25.7238 31.4681 25.5579 31.781 25.2261 32.0509C24.8847 32.3212 24.1928 32.487 23.1642 32.5391C23.0647 32.5438 22.984 32.629 22.984 32.7286V33.4585C22.984 33.5628 23.0692 33.648 23.1735 33.648L36.8102 33.6486C36.9145 33.6486 36.9997 33.5634 36.9997 33.4591V32.7291C36.9997 32.6248 36.9145 32.5396 36.8102 32.5396H35.8764C34.8575 32.5396 34.1464 32.293 33.6912 31.7861C33.4589 31.535 33.1839 30.8143 33.1839 28.8377L33.1842 11.4227C33.189 9.61666 33.4069 8.91989 33.5919 8.65925L33.5922 8.65939ZM12.7214 21.4525L9.80615 28.1976C9.21849 29.5818 8.64971 30.6483 8.12814 31.3783C8.09496 31.4303 8.03816 31.459 7.97658 31.459C7.96702 31.459 7.95296 31.4542 7.9434 31.4542C7.87227 31.4446 7.81547 31.3926 7.79635 31.3215C7.63523 30.7622 7.55932 29.9468 7.55932 28.8376L7.5596 11.0296C7.5596 10.9396 7.62117 10.8637 7.70665 10.8448C7.79663 10.826 7.88211 10.8684 7.92006 10.9491L12.7217 21.2964C12.7405 21.3481 12.7453 21.4052 12.7214 21.4524L12.7214 21.4525ZM22.5143 21.7463L19.7558 27.7376C19.7226 27.8039 19.6562 27.8467 19.5851 27.8467C19.5139 27.8467 19.4476 27.8039 19.4144 27.7376L15.3143 19.0063C15.2955 18.9543 15.2907 18.8972 15.3143 18.85L18.2009 12.2283C18.2293 12.1572 18.2956 12.1145 18.3716 12.1145C18.4427 12.1145 18.5138 12.1572 18.5422 12.2283L22.5144 21.5945C22.538 21.6417 22.538 21.6988 22.5144 21.746L22.5143 21.7463ZM29.3778 28.4015C29.3778 28.4914 29.3163 28.5673 29.2263 28.5862C29.2119 28.591 29.2027 28.591 29.1883 28.591C29.1124 28.591 29.0413 28.5482 29.0129 28.4771C29.0081 28.4628 29.0033 28.4535 28.9985 28.4391L25.1639 19.3904C25.1451 19.3429 25.1451 19.2861 25.1687 19.2389L29.0129 10.9489C29.0508 10.8682 29.1408 10.8257 29.2263 10.8446C29.3163 10.8634 29.3778 10.9393 29.3778 11.0248L29.3778 28.4015Z" fill="black"/>
</svg>
