<svg width="50" height="41" viewBox="0 0 50 41" fill="none" xmlns="http://www.w3.org/2000/svg">
<path d="M48 7.15H25.5625L18.2313 0.1375C18.138 0.0501734 18.0153 0.0010956 17.8875 0H2C0.89375 0 0 0.89375 0 2V39C0 40.1063 0.89375 41 2 41H48C49.1063 41 50 40.1063 50 39V9.15C50 8.04375 49.1063 7.15 48 7.15ZM32.5 24.5625C32.5 24.8 32.2875 25 32.0312 25H26.75V30.3063C26.75 30.55 26.55 30.75 26.3125 30.75H23.6875C23.45 30.75 23.25 30.55 23.25 30.3063V25H17.9688C17.7125 25 17.5 24.8 17.5 24.5625V21.9375C17.5 21.7 17.7125 21.5 17.9688 21.5H23.25V16.1938C23.25 15.95 23.45 15.75 23.6875 15.75H26.3125C26.55 15.75 26.75 15.95 26.75 16.1938V21.5H32.0312C32.2875 21.5 32.5 21.7 32.5 21.9375V24.5625Z" fill="black"/>
</svg>
