<svg width="40" height="40" viewBox="0 0 40 40" fill="none" xmlns="http://www.w3.org/2000/svg">
<path d="M20 28.0252C24.1865 28.0252 27.5905 24.62 27.5905 20.4347C27.5905 16.2494 24.1865 12.8442 20 12.8442C15.8136 12.8442 12.4095 16.2483 12.4095 20.4347C12.4095 24.6211 15.8136 28.0252 20 28.0252ZM20 15.5106C22.7145 15.5106 24.924 17.7198 24.924 20.4346C24.924 23.149 22.7145 25.3585 20 25.3585C17.2855 25.3585 15.0761 23.149 15.0761 20.4346C15.0761 17.7201 17.2855 15.5106 20 15.5106Z" fill="black"/>
<path d="M20 32.8684C30.8499 32.8684 39.3737 21.7115 39.731 21.2354C40.0897 20.7607 40.0897 20.106 39.731 19.6315C39.3736 19.1569 30.8499 8 20 8C9.15014 8 0.62628 19.1569 0.268961 19.6315C-0.0896536 20.1062 -0.0896536 20.7609 0.268961 21.2354C0.626387 21.7115 9.15014 32.8684 20 32.8684ZM20 10.6666C27.9441 10.6666 34.8421 17.9675 36.9449 20.4339C34.8422 22.9017 27.9441 30.2011 20 30.2011C12.0559 30.2011 5.15791 22.9014 3.05514 20.4339C5.15776 17.9661 12.0559 10.6666 20 10.6666Z" fill="black"/>
</svg>
