<svg width="350" height="456" viewBox="0 0 350 456" fill="none" xmlns="http://www.w3.org/2000/svg">
<path d="M280 420.5H70C63.7461 420.5 57.969 423.836 54.844 429.25C51.719 434.664 51.719 441.336 54.844 446.75C57.969 452.164 63.7463 455.5 70 455.5H280C286.254 455.5 292.031 452.164 295.156 446.75C298.281 441.336 298.281 434.664 295.156 429.25C292.031 423.836 286.254 420.5 280 420.5Z" fill="currentColor"/>
<path d="M332.5 210.5H262.5V18C262.5 13.3594 260.656 8.9062 257.375 5.625C254.094 2.3438 249.641 0.5 245 0.5H105C100.359 0.5 95.9062 2.3438 92.625 5.625C89.3438 8.9062 87.5 13.3594 87.5 18V210.5H17.5C12.8594 210.5 8.4102 212.344 5.129 215.625C1.8478 218.91 0.0039978 223.359 0.0039978 228C0.0039978 232.641 1.8478 237.09 5.129 240.371L162.629 397.871C165.91 401.152 170.359 402.996 175 402.996C179.641 402.996 184.09 401.152 187.371 397.871L344.871 240.371C348.152 237.09 349.996 232.641 349.996 228C349.996 223.359 348.152 218.91 344.871 215.625C341.59 212.344 337.141 210.5 332.5 210.5ZM175 360.75L59.75 245.5H105.004C109.645 245.5 114.098 243.656 117.379 240.375C120.66 237.094 122.504 232.641 122.504 228V35.5H227.504V228C227.504 232.641 229.348 237.094 232.629 240.375C235.91 243.656 240.363 245.5 245.004 245.5H290.258L175 360.75Z" fill="currentColor"/>
</svg>
