<svg width="40" height="40" viewBox="0 0 40 40" fill="none" xmlns="http://www.w3.org/2000/svg">
<path fill-rule="evenodd" clip-rule="evenodd" d="M32.2228 18.3338H17.7781C16.8583 18.3338 16.1115 19.0806 16.1115 20.0005C16.1115 20.9204 16.8583 21.6672 17.7781 21.6672H32.2228C33.1426 21.6672 33.8895 20.9204 33.8895 20.0005C33.8895 19.0806 33.1426 18.3338 32.2228 18.3338Z" fill="black"/>
<path fill-rule="evenodd" clip-rule="evenodd" d="M30.0671 25.6228L34.5116 21.1783C35.1627 20.5272 35.1627 19.4739 34.5116 18.8226L30.0671 14.3781C29.4183 13.727 28.3605 13.727 27.7114 14.3781C27.0604 15.0269 27.0604 16.0847 27.7114 16.7338L30.9759 20.0004L27.7114 23.2671C27.0604 23.9159 27.0604 24.9737 27.7114 25.6228C28.3603 26.2738 29.4181 26.2738 30.0671 25.6228V25.6228Z" fill="black"/>
<path fill-rule="evenodd" clip-rule="evenodd" d="M26.4475 29.7225C24.6007 30.9514 22.3829 31.667 20.0004 31.667C13.5603 31.667 8.3336 26.4402 8.3336 20.0002C8.3336 13.5601 13.5603 8.33335 20.0004 8.33335C22.3827 8.33335 24.6004 9.04891 26.4475 10.2778C27.2119 10.7868 28.2476 10.5779 28.7585 9.81104C29.2674 9.04665 29.0586 8.01089 28.2917 7.50003C25.9162 5.92211 23.065 5 20.0002 5C11.722 5 5 11.7226 5 20.0002C5 28.2778 11.7226 35.0004 20.0002 35.0004C23.0647 35.0004 25.9159 34.0783 28.2917 32.5003C29.0583 31.9892 29.2672 30.9537 28.7585 30.1893C28.2473 29.4227 27.2119 29.2139 26.4475 29.7226V29.7225Z" fill="black"/>
</svg>
