<svg width="689" height="676" viewBox="0 0 689 676" fill="none" xmlns="http://www.w3.org/2000/svg">
<path d="M523.434 27.5722H641.051L480 188.624C474.609 194.015 474.609 202.724 480 208.108C482.688 210.796 486.217 212.148 489.745 212.148C493.274 212.148 496.802 210.796 499.491 208.108L661.252 46.345V165.365C661.252 172.97 667.411 179.143 675.03 179.143C682.65 179.143 688.808 172.97 688.808 165.365V13.7853C688.808 6.18039 682.65 0.00730538 675.03 0.00730538L523.451 0C515.832 0 509.673 6.17308 509.673 13.778C509.666 21.3902 515.824 27.5632 523.451 27.5632L523.434 27.5722Z" fill="black"/>
<path d="M675.236 275.61C667.616 275.61 661.457 281.783 661.457 289.388V647.676H27.5612V27.5632H399.633C407.252 27.5632 413.411 21.3901 413.411 13.7853C413.411 6.18037 407.252 0.00730538 399.633 0.00730538L13.778 0C6.17308 0 0 6.17308 0 13.778V661.457C0 669.077 6.17308 675.235 13.778 675.235H675.222C682.842 675.235 689 669.077 689 661.457V289.386C689.007 281.788 682.849 275.615 675.229 275.615L675.236 275.61Z" fill="black"/>
<path d="M203.327 212.112H439.617V233.885H203.327V212.112Z" fill="black"/>
<path d="M203.327 267.852H439.617V289.606H203.327V267.852Z" fill="black"/>
<path d="M203.327 323.602H439.617V345.375H203.327V323.602Z" fill="black"/>
<path d="M203.327 379.342H439.617V401.115H203.327V379.342Z" fill="black"/>
<path d="M203.327 435.092V456.865H422.477C431.028 447.853 437.887 440.49 436.493 435.092H203.327Z" fill="black"/>
<path d="M406.097 493.062C406.097 492.093 406.265 491.179 406.335 490.246H239.115L237.385 499.035C237.283 499.593 225.389 555.375 194.299 556.105C180.315 555.749 169.049 544.312 169.049 530.261V193.971C168.486 177.237 166.4 163.834 162.787 153.889H447.967C462.256 153.889 473.881 165.514 473.881 179.784V389.664H495.654L495.65 179.784C495.65 153.499 474.236 132.1 447.947 132.1H137.367C90.3081 135.236 76.1561 203.83 75.5781 206.819L73 219.799H147.277V530.249C147.277 556.093 167.996 577.12 193.707 577.815V577.951L410.867 577.948C407.711 571.448 406.098 562.999 406.098 552.136V493.066L406.097 493.062Z" fill="black"/>
<path d="M548.507 401.112C548.573 390.491 549.628 379.815 551.187 375.69H551.288C598.479 360.792 620.065 310.967 615.417 227.58C609.581 122.44 604.948 111 589.233 111C577.932 111 572.128 123.27 564.506 139.441C561.826 144.039 500.26 252.421 506.162 401.111L548.507 401.112ZM583.769 149.552C584.429 148.161 585.433 146.04 586.585 143.697C588.503 156.154 590.402 176.583 592.218 204.598C581.222 208.723 572.058 213.778 571.601 219.361C571.043 226.048 581.308 228.56 593.679 229.286C594.035 235.716 594.07 241.657 594.07 247.614C578.324 252.212 561.488 258.884 560.859 266.536C560.163 274.954 576.605 276.802 592.882 276.684C592.222 283.184 591.186 289.172 589.964 294.911C574.319 299.509 557.757 306.11 557.112 313.696C556.553 320.485 567.225 322.997 579.921 323.642C571.706 339.388 560.101 350.064 544.726 354.9C543.163 355.392 541.945 355.818 541.042 356.173C537.952 357.446 529.96 360.771 527.397 383.935C526.733 249.975 582.768 151.335 583.768 149.555L583.769 149.552Z" fill="black"/>
<path d="M556.447 434.312C570.564 415.374 564.201 407.804 548.521 406.718V406.48H506.248H502.635H476.518H468.17C449.42 406.48 440.764 413.726 456.072 434.312C463.76 444.628 422.49 465.621 422.49 492.91V542.308C422.49 567.71 432.826 577.945 452.951 577.945H506.252H559.572C579.697 577.945 590.033 567.711 590.033 542.308V492.91C590.029 465.625 548.795 444.633 556.447 434.312L556.447 434.312Z" fill="black"/>
</svg>
