<svg width="209" height="31" viewBox="0 0 209 31" fill="none" xmlns="http://www.w3.org/2000/svg">
<path fill-rule="evenodd" clip-rule="evenodd" d="M99.7356 0H0V30.2827H99.7356V0ZM29.5137 22.1064C30.3423 22.4575 31.2692 22.6331 32.2944 22.6331C33.3758 22.6331 34.3097 22.4364 35.0962 22.0432C35.8827 21.6359 36.4796 21.0952 36.8869 20.4211C37.2941 19.747 37.4978 19.0167 37.4978 18.2302C37.4978 17.3173 37.2801 16.58 36.8447 16.0183C36.4094 15.4565 35.8897 15.0352 35.2858 14.7543C34.6819 14.4734 33.9025 14.1925 32.9475 13.9116C32.2453 13.701 31.6975 13.5184 31.3043 13.3639C30.9251 13.1954 30.6021 12.9847 30.3352 12.7319C30.0825 12.4651 29.9561 12.135 29.9561 11.7418C29.9561 11.18 30.1246 10.7517 30.4616 10.4568C30.8127 10.1618 31.2762 10.0144 31.852 10.0144C32.5121 10.0144 33.0387 10.1829 33.432 10.52C33.8393 10.843 34.0569 11.2573 34.085 11.7629H37.3292C37.2309 10.4427 36.7043 9.41749 35.7493 8.6872C34.8083 7.94286 33.5794 7.57069 32.0627 7.57069C31.0515 7.57069 30.1527 7.74624 29.3662 8.09734C28.5797 8.4344 27.9688 8.92595 27.5334 9.57198C27.0981 10.218 26.8804 10.9764 26.8804 11.8471C26.8804 12.7741 27.091 13.5184 27.5124 14.0802C27.9477 14.6279 28.4604 15.0422 29.0502 15.3231C29.6541 15.5899 30.4336 15.8638 31.3886 16.1447C32.0908 16.3413 32.6385 16.5238 33.0317 16.6924C33.439 16.8469 33.7761 17.0645 34.0429 17.3454C34.3097 17.6263 34.4432 17.9844 34.4432 18.4198C34.4432 18.9535 34.2466 19.3889 33.8533 19.7259C33.4601 20.0489 32.9194 20.2104 32.2312 20.2104C31.5571 20.2104 31.0234 20.0349 30.6302 19.6838C30.251 19.3327 30.0403 18.8552 29.9982 18.2513H26.8382C26.8523 19.1501 27.0981 19.9296 27.5756 20.5896C28.0531 21.2497 28.6991 21.7553 29.5137 22.1064ZM18.4514 7.78135V22.4856H15.5021V16.2289H9.20332V22.4856H6.25405V7.78135H9.20332V13.8274H15.5021V7.78135H18.4514ZM24.3035 7.78135V22.4856H21.3543V7.78135H24.3035ZM50.0612 7.78135V10.1618H46.1428V22.4856H43.1936V10.1618H39.2752V7.78135H50.0612ZM55.2466 21.664C56.3982 22.31 57.6622 22.6331 59.0385 22.6331C60.4148 22.6331 61.6788 22.31 62.8304 21.664C63.9821 21.018 64.8879 20.1262 65.548 18.9886C66.2221 17.837 66.5592 16.5379 66.5592 15.0913C66.5592 13.6588 66.2221 12.3738 65.548 11.2362C64.8879 10.0846 63.9821 9.18577 62.8304 8.53973C61.6929 7.8937 60.4289 7.57069 59.0385 7.57069C57.6622 7.57069 56.3982 7.8937 55.2466 8.53973C54.095 9.18577 53.1821 10.0846 52.508 11.2362C51.8339 12.3738 51.4968 13.6588 51.4968 15.0913C51.4968 16.5379 51.8339 17.837 52.508 18.9886C53.1821 20.1262 54.095 21.018 55.2466 21.664ZM61.3769 19.4099C60.7028 19.8032 59.9233 19.9998 59.0385 19.9998C58.1537 19.9998 57.3673 19.8032 56.6791 19.4099C56.005 19.0026 55.4783 18.4268 55.0991 17.6825C54.7199 16.9381 54.5303 16.0744 54.5303 15.0913C54.5303 14.1082 54.7199 13.2516 55.0991 12.5213C55.4783 11.7769 56.005 11.2081 56.6791 10.8149C57.3673 10.4217 58.1537 10.225 59.0385 10.225C59.9233 10.225 60.7028 10.4217 61.3769 10.8149C62.051 11.2081 62.5776 11.7769 62.9568 12.5213C63.336 13.2516 63.5256 14.1082 63.5256 15.0913C63.5256 16.0744 63.336 16.9381 62.9568 17.6825C62.5776 18.4268 62.051 19.0026 61.3769 19.4099ZM76.3372 22.4856L73.093 16.7556H71.7026V22.4856H68.7533V7.78135H74.2727C75.4103 7.78135 76.3793 7.98499 77.1799 8.39227C77.9804 8.78551 78.5772 9.32621 78.9705 10.0144C79.3778 10.6885 79.5814 11.4469 79.5814 12.2895C79.5814 13.2586 79.3005 14.1363 78.7388 14.9228C78.177 15.6952 77.3414 16.2289 76.2319 16.5238L79.7499 22.4856H76.3372ZM71.7026 14.5436H74.1674C74.9679 14.5436 75.5648 14.354 75.958 13.9748C76.3512 13.5816 76.5479 13.0409 76.5479 12.3527C76.5479 11.6786 76.3512 11.159 75.958 10.7938C75.5648 10.4146 74.9679 10.225 74.1674 10.225H71.7026V14.5436ZM88.9691 17.3665L93.9407 7.78135H90.6544L87.5155 14.5015L84.3555 7.78135H81.0271L86.0198 17.3665V22.4856H88.9691V17.3665Z" fill="#FFD263"/>
<path d="M109.076 10.0591V13.7457H114.026V16.0841H109.076V19.9813H114.658V22.3829H106.127V7.65758H114.658V10.0591H109.076Z" fill="#3A343A"/>
<path d="M126.144 22.3829L122.963 17.4323L120.077 22.3829H116.749L121.383 14.9676L116.686 7.67865H120.077L123.258 12.6082L126.123 7.67865H129.452L124.838 15.0729L129.536 22.3829H126.144Z" fill="#3A343A"/>
<path d="M142.503 12.229C142.503 13.0154 142.314 13.7528 141.934 14.4409C141.569 15.1291 140.986 15.6838 140.186 16.1052C139.399 16.5265 138.402 16.7371 137.195 16.7371H134.73V22.3829H131.781V7.67865H137.195C138.332 7.67865 139.301 7.87527 140.102 8.2685C140.902 8.66174 141.499 9.20244 141.892 9.89061C142.3 10.5788 142.503 11.3582 142.503 12.229ZM137.068 14.3567C137.883 14.3567 138.487 14.1741 138.88 13.8089C139.273 13.4297 139.47 12.9031 139.47 12.229C139.47 10.7965 138.669 10.0802 137.068 10.0802H134.73V14.3567H137.068Z" fill="#3A343A"/>
<path d="M151.423 22.5304C150.046 22.5304 148.782 22.2073 147.631 21.5613C146.479 20.9153 145.566 20.0235 144.892 18.8859C144.218 17.7343 143.881 16.4352 143.881 14.9886C143.881 13.5561 144.218 12.2711 144.892 11.1335C145.566 9.98189 146.479 9.08307 147.631 8.43703C148.782 7.791 150.046 7.46799 151.423 7.46799C152.813 7.46799 154.077 7.791 155.215 8.43703C156.366 9.08307 157.272 9.98189 157.932 11.1335C158.606 12.2711 158.943 13.5561 158.943 14.9886C158.943 16.4352 158.606 17.7343 157.932 18.8859C157.272 20.0235 156.366 20.9153 155.215 21.5613C154.063 22.2073 152.799 22.5304 151.423 22.5304ZM151.423 19.8971C152.307 19.8971 153.087 19.7005 153.761 19.3072C154.435 18.8999 154.962 18.3241 155.341 17.5798C155.72 16.8354 155.91 15.9717 155.91 14.9886C155.91 14.0055 155.72 13.1489 155.341 12.4186C154.962 11.6742 154.435 11.1054 153.761 10.7122C153.087 10.319 152.307 10.1223 151.423 10.1223C150.538 10.1223 149.751 10.319 149.063 10.7122C148.389 11.1054 147.862 11.6742 147.483 12.4186C147.104 13.1489 146.914 14.0055 146.914 14.9886C146.914 15.9717 147.104 16.8354 147.483 17.5798C147.862 18.3241 148.389 18.8999 149.063 19.3072C149.751 19.7005 150.538 19.8971 151.423 19.8971Z" fill="#3A343A"/>
<path d="M168.721 22.3829L165.477 16.6529H164.087V22.3829H161.137V7.67865H166.657C167.794 7.67865 168.763 7.88229 169.564 8.28957C170.365 8.68281 170.961 9.22351 171.355 9.91167C171.762 10.5858 171.966 11.3442 171.966 12.1868C171.966 13.1559 171.685 14.0336 171.123 14.8201C170.561 15.5925 169.726 16.1262 168.616 16.4211L172.134 22.3829H168.721ZM164.087 14.4409H166.552C167.352 14.4409 167.949 14.2513 168.342 13.8721C168.735 13.4789 168.932 12.9382 168.932 12.25C168.932 11.5759 168.735 11.0563 168.342 10.6911C167.949 10.3119 167.352 10.1223 166.552 10.1223H164.087V14.4409Z" fill="#3A343A"/>
<path d="M184.64 7.67865V10.0591H180.721V22.3829H177.772V10.0591H173.854V7.67865H184.64Z" fill="#3A343A"/>
<path d="M189.741 10.0591V13.7457H194.691V16.0841H189.741V19.9813H195.323V22.3829H186.791V7.65758H195.323V10.0591H189.741Z" fill="#3A343A"/>
<path d="M205.587 22.3829L202.343 16.6529H200.953V22.3829H198.003V7.67865H203.523C204.66 7.67865 205.629 7.88229 206.43 8.28957C207.23 8.68281 207.827 9.22351 208.221 9.91167C208.628 10.5858 208.832 11.3442 208.832 12.1868C208.832 13.1559 208.551 14.0336 207.989 14.8201C207.427 15.5925 206.591 16.1262 205.482 16.4211L209 22.3829H205.587ZM200.953 14.4409H203.417C204.218 14.4409 204.815 14.2513 205.208 13.8721C205.601 13.4789 205.798 12.9382 205.798 12.25C205.798 11.5759 205.601 11.0563 205.208 10.6911C204.815 10.3119 204.218 10.1223 203.417 10.1223H200.953V14.4409Z" fill="#3A343A"/>
</svg>
