<svg width="689" height="689" viewBox="0 0 689 689" fill="none" xmlns="http://www.w3.org/2000/svg">
<g clip-path="url(#clip0_50_35)">
<rect width="689" height="689" fill="#FFD263"/>
<path d="M522.957 28.0729H641.761L479.084 192.049C473.639 197.539 473.639 206.405 479.084 211.887C481.8 214.624 485.364 216 488.928 216C492.492 216 496.056 214.624 498.772 211.887L662.166 47.1866V168.368C662.166 176.111 668.387 182.396 676.083 182.396C683.779 182.396 690 176.111 690 168.368V14.0356C690 6.29262 683.779 0.00743804 676.083 0.00743804L522.974 0C515.277 0 509.057 6.28518 509.057 14.0282C509.049 21.7786 515.27 28.0637 522.974 28.0637L522.957 28.0729Z" fill="#3A343A"/>
<path d="M676.096 281.228C668.399 281.228 662.178 287.527 662.178 295.287V660.879H21.8412V28.1251H397.693C405.39 28.1251 411.611 21.8262 411.611 14.0663C411.611 6.30636 405.39 0.0074543 397.693 0.0074543L7.91795 0C0.2358 0 -6 6.29892 -6 14.0588V674.941C-6 682.716 0.2358 689 7.91795 689H676.082C683.779 689 690 682.716 690 674.941V295.285C690.007 287.533 683.786 281.234 676.089 281.234L676.096 281.228Z" fill="#3A343A"/>
<path d="M199.012 213.997H437.401V235.963H199.012V213.997Z" fill="#3A343A"/>
<path d="M199.012 270.232H437.401V292.179H199.012V270.232Z" fill="#3A343A"/>
<path d="M199.012 326.478H437.401V348.444H199.012V326.478Z" fill="#3A343A"/>
<path d="M199.012 382.713H437.401V404.679H199.012V382.713Z" fill="#3A343A"/>
<path d="M199.012 438.958V460.925H420.109C428.736 451.833 435.656 444.404 434.25 438.958H199.012Z" fill="#3A343A"/>
<path d="M403.583 497.443C403.583 496.466 403.753 495.544 403.824 494.602H235.118L233.372 503.469C233.269 504.033 221.269 560.31 189.903 561.046C175.795 560.688 164.429 549.148 164.429 534.973V195.694C163.861 178.812 161.757 165.29 158.111 155.256H445.825C460.241 155.256 471.97 166.984 471.97 181.381V393.126H493.936L493.932 181.381C493.932 154.863 472.328 133.274 445.805 133.274H132.465C84.9883 136.438 70.7105 205.641 70.1274 208.656L67.5264 221.752H142.463V534.96C142.463 561.034 163.366 582.248 189.306 582.949V583.087L408.396 583.083C405.211 576.525 403.584 568.001 403.584 557.042V497.447L403.583 497.443Z" fill="#3A343A"/>
<path d="M547.258 404.676C547.325 393.961 548.389 383.19 549.962 379.028H550.064C597.675 363.998 619.452 313.73 614.763 229.602C608.875 123.528 604.201 111.986 588.346 111.986C576.945 111.986 571.089 124.365 563.4 140.68C560.696 145.319 498.583 254.664 504.537 404.675L547.258 404.676ZM582.834 150.881C583.5 149.478 584.513 147.338 585.675 144.973C587.61 157.541 589.525 178.153 591.358 206.417C580.264 210.578 571.019 215.678 570.558 221.31C569.994 228.057 580.351 230.591 592.832 231.324C593.19 237.811 593.226 243.805 593.226 249.815C577.34 254.453 560.355 261.185 559.72 268.905C559.018 277.398 575.606 279.262 592.027 279.143C591.361 285.701 590.317 291.742 589.084 297.532C573.299 302.17 556.59 308.83 555.94 316.484C555.376 323.333 566.142 325.867 578.951 326.517C570.663 342.403 558.955 353.174 543.444 358.053C541.867 358.55 540.638 358.979 539.727 359.338C536.61 360.623 528.547 363.976 525.961 387.347C525.291 252.196 581.824 152.68 582.833 150.884L582.834 150.881Z" fill="#3A343A"/>
<path d="M555.269 438.171C569.512 419.065 563.092 411.428 547.273 410.332V410.092H504.624H500.979H474.63H466.208C447.291 410.092 438.558 417.402 454.002 438.171C461.758 448.579 420.122 469.758 420.122 497.29V547.127C420.122 572.754 430.55 583.08 450.854 583.08H504.628H558.422C578.726 583.08 589.154 572.755 589.154 547.127V497.29C589.15 469.762 547.549 448.584 555.269 438.171L555.269 438.171Z" fill="#3A343A"/>
</g>
<defs>
<clipPath id="clip0_50_35">
<rect width="689" height="689" fill="white"/>
</clipPath>
</defs>
</svg>
